<mxfile host="app.diagrams.net" agent="Mozilla/5.0 (Windows NT 10.0; Win64; x64) AppleWebKit/537.36 (KHTML, like Gecko) Chrome/131.0.0.0 Safari/537.36 Edg/131.0.0.0" version="24.9.2">
  <diagram name="Page-1" id="4O4TqFtf_3tBsz6zpSoJ">
    <mxGraphModel dx="1049" dy="511" grid="0" gridSize="10" guides="1" tooltips="1" connect="1" arrows="1" fold="1" page="0" pageScale="1" pageWidth="850" pageHeight="1100" math="0" shadow="0">
      <root>
        <mxCell id="0" />
        <mxCell id="1" parent="0" />
        <mxCell id="vQuTS4hnFG5ERn2wnjH0-28" value="" style="group" vertex="1" connectable="0" parent="1">
          <mxGeometry x="87" y="72" width="436" height="547" as="geometry" />
        </mxCell>
        <mxCell id="vQuTS4hnFG5ERn2wnjH0-1" value="MODIFY BOOKING" style="ellipse;whiteSpace=wrap;html=1;" vertex="1" parent="vQuTS4hnFG5ERn2wnjH0-28">
          <mxGeometry x="97" y="257" width="156" height="42" as="geometry" />
        </mxCell>
        <mxCell id="vQuTS4hnFG5ERn2wnjH0-2" value="MANAGE BOOKINGS" style="ellipse;whiteSpace=wrap;html=1;" vertex="1" parent="vQuTS4hnFG5ERn2wnjH0-28">
          <mxGeometry x="103" y="495" width="156" height="42" as="geometry" />
        </mxCell>
        <mxCell id="vQuTS4hnFG5ERn2wnjH0-3" value="REGISTER" style="ellipse;whiteSpace=wrap;html=1;" vertex="1" parent="vQuTS4hnFG5ERn2wnjH0-28">
          <mxGeometry x="100" y="7" width="156" height="42" as="geometry" />
        </mxCell>
        <mxCell id="vQuTS4hnFG5ERn2wnjH0-4" value="VIEW BOOKING" style="ellipse;whiteSpace=wrap;html=1;" vertex="1" parent="vQuTS4hnFG5ERn2wnjH0-28">
          <mxGeometry x="97" y="199" width="156" height="42" as="geometry" />
        </mxCell>
        <mxCell id="vQuTS4hnFG5ERn2wnjH0-5" value="LOGIN" style="ellipse;whiteSpace=wrap;html=1;" vertex="1" parent="vQuTS4hnFG5ERn2wnjH0-28">
          <mxGeometry x="97" y="69" width="156" height="42" as="geometry" />
        </mxCell>
        <mxCell id="vQuTS4hnFG5ERn2wnjH0-6" value="CANCEL BOOKING" style="ellipse;whiteSpace=wrap;html=1;" vertex="1" parent="vQuTS4hnFG5ERn2wnjH0-28">
          <mxGeometry x="100" y="315" width="156" height="42" as="geometry" />
        </mxCell>
        <mxCell id="vQuTS4hnFG5ERn2wnjH0-7" value="PROCESS PAYMENT" style="ellipse;whiteSpace=wrap;html=1;" vertex="1" parent="vQuTS4hnFG5ERn2wnjH0-28">
          <mxGeometry x="103" y="375" width="156" height="42" as="geometry" />
        </mxCell>
        <mxCell id="vQuTS4hnFG5ERn2wnjH0-8" value="MANAGE USERS" style="ellipse;whiteSpace=wrap;html=1;" vertex="1" parent="vQuTS4hnFG5ERn2wnjH0-28">
          <mxGeometry x="100" y="435" width="156" height="42" as="geometry" />
        </mxCell>
        <mxCell id="vQuTS4hnFG5ERn2wnjH0-9" value="CREATE BOOKING" style="ellipse;whiteSpace=wrap;html=1;" vertex="1" parent="vQuTS4hnFG5ERn2wnjH0-28">
          <mxGeometry x="100" y="135" width="156" height="42" as="geometry" />
        </mxCell>
        <mxCell id="vQuTS4hnFG5ERn2wnjH0-10" value="USER" style="shape=umlActor;verticalLabelPosition=bottom;verticalAlign=top;html=1;outlineConnect=0;" vertex="1" parent="vQuTS4hnFG5ERn2wnjH0-28">
          <mxGeometry x="406" y="69" width="30" height="109" as="geometry" />
        </mxCell>
        <mxCell id="vQuTS4hnFG5ERn2wnjH0-11" value="PAYMENT GATEWAY" style="shape=umlActor;verticalLabelPosition=bottom;verticalAlign=top;html=1;outlineConnect=0;" vertex="1" parent="vQuTS4hnFG5ERn2wnjH0-28">
          <mxGeometry y="330" width="30" height="105" as="geometry" />
        </mxCell>
        <mxCell id="vQuTS4hnFG5ERn2wnjH0-12" value="ADMIN" style="shape=umlActor;verticalLabelPosition=bottom;verticalAlign=top;html=1;outlineConnect=0;" vertex="1" parent="vQuTS4hnFG5ERn2wnjH0-28">
          <mxGeometry x="406" y="344" width="30" height="117" as="geometry" />
        </mxCell>
        <mxCell id="vQuTS4hnFG5ERn2wnjH0-14" value="" style="endArrow=classic;html=1;rounded=0;fontSize=12;startSize=8;endSize=8;curved=1;entryX=1;entryY=0.5;entryDx=0;entryDy=0;" edge="1" parent="vQuTS4hnFG5ERn2wnjH0-28" source="vQuTS4hnFG5ERn2wnjH0-10" target="vQuTS4hnFG5ERn2wnjH0-3">
          <mxGeometry width="50" height="50" relative="1" as="geometry">
            <mxPoint x="402" y="108" as="sourcePoint" />
            <mxPoint x="353" y="167" as="targetPoint" />
          </mxGeometry>
        </mxCell>
        <mxCell id="vQuTS4hnFG5ERn2wnjH0-15" value="" style="endArrow=classic;html=1;rounded=0;fontSize=12;startSize=8;endSize=8;curved=1;entryX=1;entryY=0.5;entryDx=0;entryDy=0;" edge="1" parent="vQuTS4hnFG5ERn2wnjH0-28" source="vQuTS4hnFG5ERn2wnjH0-10" target="vQuTS4hnFG5ERn2wnjH0-5">
          <mxGeometry width="50" height="50" relative="1" as="geometry">
            <mxPoint x="273" y="185" as="sourcePoint" />
            <mxPoint x="323" y="135" as="targetPoint" />
          </mxGeometry>
        </mxCell>
        <mxCell id="vQuTS4hnFG5ERn2wnjH0-16" value="" style="endArrow=classic;html=1;rounded=0;fontSize=12;startSize=8;endSize=8;curved=1;entryX=0.987;entryY=0.286;entryDx=0;entryDy=0;entryPerimeter=0;" edge="1" parent="vQuTS4hnFG5ERn2wnjH0-28" source="vQuTS4hnFG5ERn2wnjH0-10" target="vQuTS4hnFG5ERn2wnjH0-9">
          <mxGeometry width="50" height="50" relative="1" as="geometry">
            <mxPoint x="158" y="299" as="sourcePoint" />
            <mxPoint x="208" y="249" as="targetPoint" />
          </mxGeometry>
        </mxCell>
        <mxCell id="vQuTS4hnFG5ERn2wnjH0-17" value="" style="endArrow=classic;html=1;rounded=0;fontSize=12;startSize=8;endSize=8;curved=1;entryX=1;entryY=0.5;entryDx=0;entryDy=0;" edge="1" parent="vQuTS4hnFG5ERn2wnjH0-28" source="vQuTS4hnFG5ERn2wnjH0-10" target="vQuTS4hnFG5ERn2wnjH0-4">
          <mxGeometry width="50" height="50" relative="1" as="geometry">
            <mxPoint x="158" y="299" as="sourcePoint" />
            <mxPoint x="208" y="249" as="targetPoint" />
          </mxGeometry>
        </mxCell>
        <mxCell id="vQuTS4hnFG5ERn2wnjH0-18" value="" style="endArrow=classic;html=1;rounded=0;fontSize=12;startSize=8;endSize=8;curved=1;entryX=1;entryY=0.5;entryDx=0;entryDy=0;" edge="1" parent="vQuTS4hnFG5ERn2wnjH0-28" source="vQuTS4hnFG5ERn2wnjH0-10" target="vQuTS4hnFG5ERn2wnjH0-1">
          <mxGeometry width="50" height="50" relative="1" as="geometry">
            <mxPoint x="158" y="299" as="sourcePoint" />
            <mxPoint x="208" y="249" as="targetPoint" />
          </mxGeometry>
        </mxCell>
        <mxCell id="vQuTS4hnFG5ERn2wnjH0-19" value="" style="endArrow=classic;html=1;rounded=0;fontSize=12;startSize=8;endSize=8;curved=1;entryX=1;entryY=0.5;entryDx=0;entryDy=0;" edge="1" parent="vQuTS4hnFG5ERn2wnjH0-28" source="vQuTS4hnFG5ERn2wnjH0-10" target="vQuTS4hnFG5ERn2wnjH0-6">
          <mxGeometry width="50" height="50" relative="1" as="geometry">
            <mxPoint x="158" y="299" as="sourcePoint" />
            <mxPoint x="208" y="249" as="targetPoint" />
          </mxGeometry>
        </mxCell>
        <mxCell id="vQuTS4hnFG5ERn2wnjH0-22" value="" style="endArrow=classic;html=1;rounded=0;fontSize=12;startSize=8;endSize=8;curved=1;entryX=1;entryY=0.5;entryDx=0;entryDy=0;" edge="1" parent="vQuTS4hnFG5ERn2wnjH0-28" source="vQuTS4hnFG5ERn2wnjH0-12" target="vQuTS4hnFG5ERn2wnjH0-8">
          <mxGeometry width="50" height="50" relative="1" as="geometry">
            <mxPoint x="158" y="369" as="sourcePoint" />
            <mxPoint x="208" y="319" as="targetPoint" />
          </mxGeometry>
        </mxCell>
        <mxCell id="vQuTS4hnFG5ERn2wnjH0-23" value="" style="endArrow=classic;html=1;rounded=0;fontSize=12;startSize=8;endSize=8;curved=1;entryX=1;entryY=0.5;entryDx=0;entryDy=0;" edge="1" parent="vQuTS4hnFG5ERn2wnjH0-28" source="vQuTS4hnFG5ERn2wnjH0-12" target="vQuTS4hnFG5ERn2wnjH0-2">
          <mxGeometry width="50" height="50" relative="1" as="geometry">
            <mxPoint x="158" y="369" as="sourcePoint" />
            <mxPoint x="208" y="319" as="targetPoint" />
          </mxGeometry>
        </mxCell>
        <mxCell id="vQuTS4hnFG5ERn2wnjH0-24" value="" style="endArrow=classic;html=1;rounded=0;fontSize=12;startSize=8;endSize=8;curved=1;entryX=0;entryY=0.381;entryDx=0;entryDy=0;entryPerimeter=0;" edge="1" parent="vQuTS4hnFG5ERn2wnjH0-28" source="vQuTS4hnFG5ERn2wnjH0-11" target="vQuTS4hnFG5ERn2wnjH0-7">
          <mxGeometry width="50" height="50" relative="1" as="geometry">
            <mxPoint x="22" y="383" as="sourcePoint" />
            <mxPoint x="208" y="319" as="targetPoint" />
          </mxGeometry>
        </mxCell>
        <mxCell id="vQuTS4hnFG5ERn2wnjH0-25" value="" style="rounded=0;whiteSpace=wrap;html=1;fillColor=none;strokeWidth=2;" vertex="1" parent="vQuTS4hnFG5ERn2wnjH0-28">
          <mxGeometry x="77" width="212" height="547" as="geometry" />
        </mxCell>
      </root>
    </mxGraphModel>
  </diagram>
</mxfile>
